<svg xmlns="http://www.w3.org/2000/svg" width="26" height="18.778" viewBox="0 0 26 18.778"><defs><style>.a{fill:#fff;}</style></defs><path class="a" d="M24.917,8.556H1.083a1.083,1.083,0,0,1,0-2.167H24.917a1.083,1.083,0,1,1,0,2.167Zm0,0" transform="translate(0 1.917)"/><path class="a" d="M24.917,2.167H1.083A1.083,1.083,0,1,1,1.083,0H24.917a1.083,1.083,0,1,1,0,2.167Zm0,0"/><path class="a" d="M24.917,14.944H1.083a1.083,1.083,0,0,1,0-2.167H24.917a1.083,1.083,0,1,1,0,2.167Zm0,0" transform="translate(0 3.833)"/></svg>